<svg width="17" height="20" viewBox="0 0 17 20" fill="none" xmlns="http://www.w3.org/2000/svg">
<path opacity="0.2" d="M16.1538 6.15384H10.7692V0.769226L16.1538 6.15384Z" fill="white"/>
<path d="M16.6981 5.60962L11.3135 0.225C11.242 0.153589 11.1571 0.0969631 11.0637 0.0583569C10.9704 0.0197506 10.8703 -7.92199e-05 10.7692 2.37845e-07H1.53846C1.13044 2.37845e-07 0.739122 0.162088 0.450605 0.450605C0.162087 0.739123 0 1.13044 0 1.53846V18.4615C0 18.8696 0.162087 19.2609 0.450605 19.5494C0.739122 19.8379 1.13044 20 1.53846 20H15.3846C15.7926 20 16.184 19.8379 16.4725 19.5494C16.761 19.2609 16.9231 18.8696 16.9231 18.4615V6.15385C16.9232 6.0528 16.9033 5.95273 16.8647 5.85935C16.8261 5.76597 16.7695 5.68111 16.6981 5.60962ZM11.5385 2.62596L14.2971 5.38462H11.5385V2.62596ZM15.3846 18.4615H1.53846V1.53846H10V6.15385C10 6.35786 10.081 6.55352 10.2253 6.69777C10.3696 6.84203 10.5652 6.92308 10.7692 6.92308H15.3846V18.4615ZM11.0058 13.7644C11.4597 13.043 11.632 12.1797 11.4897 11.3393C11.3474 10.499 10.9004 9.74048 10.2342 9.20883C9.56799 8.67717 8.72927 8.4096 7.87826 8.45724C7.02726 8.50489 6.22363 8.8644 5.62094 9.46709C5.01825 10.0698 4.65873 10.8734 4.61109 11.7244C4.56345 12.5754 4.83102 13.4141 5.36267 14.0803C5.89433 14.7465 6.6528 15.1935 7.49317 15.3358C8.33354 15.4782 9.19689 15.3059 9.91827 14.8519L10.9942 15.9288C11.0657 16.0003 11.1505 16.057 11.2439 16.0957C11.3373 16.1344 11.4374 16.1543 11.5385 16.1543C11.6395 16.1543 11.7396 16.1344 11.833 16.0957C11.9264 16.057 12.0112 16.0003 12.0827 15.9288C12.1542 15.8574 12.2109 15.7725 12.2495 15.6792C12.2882 15.5858 12.3081 15.4857 12.3081 15.3846C12.3081 15.2835 12.2882 15.1835 12.2495 15.0901C12.2109 14.9967 12.1542 14.9119 12.0827 14.8404L11.0058 13.7644ZM6.15385 11.9231C6.15385 11.5427 6.26663 11.1709 6.47794 10.8547C6.68925 10.5384 6.9896 10.2919 7.34099 10.1464C7.69239 10.0008 8.07906 9.96275 8.4521 10.037C8.82514 10.1112 9.1678 10.2943 9.43674 10.5633C9.70569 10.8322 9.88885 11.1749 9.96305 11.5479C10.0373 11.9209 9.99917 12.3076 9.85361 12.659C9.70806 13.0104 9.46158 13.3107 9.14533 13.5221C8.82908 13.7334 8.45727 13.8462 8.07692 13.8462C7.56689 13.8462 7.07775 13.6435 6.7171 13.2829C6.35646 12.9223 6.15385 12.4331 6.15385 11.9231Z" fill="white"/>
</svg>
