<svg width="20" height="20" viewBox="0 0 20 20" fill="none" xmlns="http://www.w3.org/2000/svg">
<path d="M1.06821 0.183275C1.0101 0.12517 0.941119 0.0790781 0.8652 0.0476317C0.789282 0.0161853 0.707913 6.12239e-10 0.62574 0C0.543567 -6.12239e-10 0.462198 0.0161853 0.38628 0.0476317C0.310361 0.0790781 0.24138 0.12517 0.183275 0.183275C0.12517 0.24138 0.0790781 0.310361 0.0476317 0.38628C0.0161853 0.462198 -6.12239e-10 0.543567 0 0.62574C6.12239e-10 0.707913 0.0161853 0.789282 0.0476317 0.8652C0.0790781 0.941119 0.12517 1.0101 0.183275 1.06821L1.63316 2.51684C1.18183 2.57571 0.76732 2.79675 0.466963 3.13873C0.166605 3.48072 0.000911313 3.92029 0.000789401 4.37544V13.1248C0.000789401 13.622 0.198318 14.0989 0.549921 14.4505C0.901524 14.8021 1.3784 14.9996 1.87564 14.9996H14.1159L15.3658 16.2495H2.60683C2.73613 16.6152 2.97566 16.9318 3.29242 17.1557C3.60917 17.3795 3.98757 17.4996 4.37544 17.4994H15.6246C15.932 17.4994 16.2333 17.4682 16.5232 17.4069L18.9318 19.8167C19.0491 19.9341 19.2083 20 19.3743 20C19.5402 20 19.6994 19.9341 19.8167 19.8167C19.9341 19.6994 20 19.5402 20 19.3743C20 19.2083 19.9341 19.0491 19.8167 18.9318L1.06821 0.183275ZM12.4998 13.3835V13.7497H5.00039V12.4998C5.00039 11.8368 4.73702 11.201 4.26822 10.7322C3.79942 10.2634 3.16358 10 2.50059 10H1.25069V7.5002H2.50059C3.03005 7.50045 3.54592 7.33258 3.97384 7.02079C4.40176 6.709 4.71964 6.2694 4.88165 5.76534L6.59652 7.4802C6.31369 7.95777 6.19784 8.51589 6.26723 9.06657C6.33663 9.61726 6.58732 10.1292 6.97979 10.5217C7.37226 10.9141 7.88419 11.1648 8.43487 11.2342C8.98556 11.3036 9.54368 11.1878 10.0212 10.9049L12.4998 13.3835ZM2.86681 3.75049L3.75049 4.63417V5.00039C3.75049 5.33189 3.61881 5.64981 3.38441 5.88421C3.15 6.11861 2.83209 6.2503 2.50059 6.2503H1.25069V4.37544C1.25069 4.2097 1.31653 4.05074 1.43373 3.93354C1.55094 3.81634 1.70989 3.75049 1.87564 3.75049H2.86681ZM7.54144 8.42637L9.07507 9.9575C8.86314 10.014 8.64008 10.0138 8.42826 9.95684C8.21644 9.89993 8.0233 9.78833 7.86821 9.63324C7.71312 9.47815 7.60152 9.28501 7.54461 9.07319C7.4877 8.86137 7.48747 8.63831 7.54394 8.42637H7.54144ZM1.87564 13.7497C1.70989 13.7497 1.55094 13.6839 1.43373 13.5667C1.31653 13.4495 1.25069 13.2905 1.25069 13.1248V11.2499H2.50059C2.83209 11.2499 3.15 11.3816 3.38441 11.616C3.61881 11.8504 3.75049 12.1683 3.75049 12.4998V13.7497H1.87564ZM14.9996 10C14.3459 10 13.7522 10.25 13.3072 10.6599L14.1922 11.5461C14.4176 11.3546 14.7038 11.2496 14.9996 11.2499H16.2495V13.1248C16.2496 13.2548 16.2089 13.3815 16.1333 13.4872L17.0207 14.3747C17.3182 14.0434 17.4994 13.6047 17.4994 13.1248V4.37544C17.4994 3.8782 17.3019 3.40133 16.9503 3.04972C16.5987 2.69812 16.1218 2.50059 15.6246 2.50059H5.14663L6.39654 3.75049H12.4998V5.00039C12.4998 5.66338 12.7632 6.29922 13.232 6.76802C13.7008 7.23683 14.3366 7.5002 14.9996 7.5002H16.2495V10H14.9996ZM15.6246 3.75049C15.7903 3.75049 15.9493 3.81634 16.0665 3.93354C16.1837 4.05074 16.2495 4.2097 16.2495 4.37544V6.2503H14.9996C14.6681 6.2503 14.3502 6.11861 14.1158 5.88421C13.8814 5.64981 13.7497 5.33189 13.7497 5.00039V3.75049H15.6246ZM17.9069 15.2596L18.7906 16.1445C19.5405 15.3583 19.9992 14.2947 19.9992 13.1248V6.87525C19.9994 6.48737 19.8793 6.10898 19.6555 5.79222C19.4316 5.47546 19.115 5.23593 18.7493 5.10664V13.1248C18.7493 13.9497 18.4293 14.7009 17.9069 15.2596Z" fill="white"/>
</svg>
