<svg width="23" height="20" viewBox="0 0 23 20" fill="none" xmlns="http://www.w3.org/2000/svg">
<path d="M1.5 6.27779V4.05557C1.5 3.4662 1.73413 2.90096 2.15087 2.48422C2.56762 2.06747 3.13285 1.83334 3.72222 1.83334H5.94444M1.5 6.27779C2.98111 6.27779 5.94444 5.3889 5.94444 1.83334M1.5 6.27779V10.7222M5.94444 1.83334H17.0556M1.5 10.7222V12.9445C1.5 13.5338 1.73413 14.0991 2.15087 14.5158C2.56762 14.9326 3.13285 15.1667 3.72222 15.1667H5.94444M1.5 10.7222C2.98111 10.7222 5.94444 11.6111 5.94444 15.1667M21.5 6.27779V4.05557C21.5 3.4662 21.2659 2.90096 20.8491 2.48422C20.4324 2.06747 19.8671 1.83334 19.2778 1.83334H17.0556M21.5 6.27779C20.0189 6.27779 17.0556 5.3889 17.0556 1.83334M21.5 6.27779V8.50001M5.94444 15.1667H10.3889" stroke="white" stroke-width="2" stroke-linecap="round" stroke-linejoin="round"/>
<path d="M11.5 10.7222C12.7273 10.7222 13.7222 9.72732 13.7222 8.50002C13.7222 7.27272 12.7273 6.2778 11.5 6.2778C10.2727 6.2778 9.27777 7.27272 9.27777 8.50002C9.27777 9.72732 10.2727 10.7222 11.5 10.7222Z" stroke="white" stroke-width="2" stroke-linecap="round" stroke-linejoin="round"/>
<path d="M18.1667 11.8333V15.1666M18.1667 15.1666V18.5M18.1667 15.1666H14.8334M18.1667 15.1666H21.5" stroke="white" stroke-width="2" stroke-linecap="round" stroke-linejoin="round"/>
</svg>
